<svg width="189" height="85" viewBox="0 0 189 85" fill="none" xmlns="http://www.w3.org/2000/svg"
  data-fill="" class="hidden sm:block TitleLayout_mountainImage__Wp56x">
  <g clip-path="url(#clip0_441_1045)">
    <path
      d="M169.45 52.25c5.501 0 9.96-4.46 9.96-9.96 0-5.5-4.459-9.96-9.96-9.96-5.501 0-9.96 4.46-9.96 9.96 0 5.5 4.459 9.96 9.96 9.96z"
      fill="#fff"></path>
    <path
      d="M183.97 84.56H4.54a4.54 4.54 0 0 1-3.73-7.11L24.92 42.5a4.53 4.53 0 0 1 3.73-2H52.1a4.53 4.53 0 0 1 4.53 4.53v.83a4.54 4.54 0 0 0 8.27 2.58L97 1.89a4.54 4.54 0 0 1 7.47 0l26.28 38.25a4.52 4.52 0 0 0 7.46 0l8.1-11.74a4.547 4.547 0 0 1 3.735-1.959 4.541 4.541 0 0 1 3.735 1.96l17.21 24.95c.089.101.172.208.25.32l16.51 23.79a4.536 4.536 0 0 1 .269 4.698 4.53 4.53 0 0 1-4.049 2.401z"
      fill="url(#paint0_linear_441_1045)"></path>
    <path
      d="M53.8 21.36l-.43.42a10.21 10.21 0 0 0 0 14.43L56.16 39a.93.93 0 0 1-.66 1.59H41.56a3.06 3.06 0 0 0-3.06 3.06v15.49a3.06 3.06 0 0 0 3.06 3.06H55.5a.93.93 0 0 1 .66 1.59l-2.36 2.37a10.789 10.789 0 0 0 0 15.27 10.791 10.791 0 0 0 15.27 0l22.4-22.39a10.82 10.82 0 0 0 0-15.28l-22.4-22.39a10.79 10.79 0 0 0-15.27-.01z"
      fill="#fff"></path>
  </g>
  <defs>
    <linearGradient id="paint0_linear_441_1045" x1="118.95" y1="122.81" x2="60.46" y2="21.5"
      gradientUnits="userSpaceOnUse">
      <stop stop-color="#5684F7"></stop>
      <stop offset=".52" stop-color="#7E7AE6"></stop>
      <stop offset="1" stop-color="#61D4C8"></stop>
    </linearGradient>
    <clipPath id="clip0_441_1045">
      <path fill="#fff" d="M0 0h188.51v84.59H0z"></path>
    </clipPath>
  </defs>
</svg>